<svg xmlns="http://www.w3.org/2000/svg" width="308" height="111.91"><path fill="#ffcb05" d="M0 90.5V0h286.48C305.9 0 308 14.1 308 21.42v90.5H21.52c-7 0-21.52-2.2-21.52-21.43z" class="st0"/><path fill="#d71440" d="M59.46 49.55c-3.5-.1-7.1 1.6-9.4 5-1.9 2.9-18.23 26.83-21.53 31.73-.6.8 0 1.1.7 1.1h11.6c1.1-.1 1.4 0 2.2-1.1 1.5-2.3 12.32-20.02 14.53-23.42.4-.6 1.1-1.1 1.9-1.1.8 0 1.4.4 1.9 1.1 2.1 3.3 13 21.12 14.5 23.42.8 1.1 1.12 1 2.22 1.1h11.6c.8 0 1.3-.3.7-1.1-3.3-4.9-19.6-28.82-21.5-31.73-2.32-3.4-5.92-5.1-9.42-5zm44.54 0v.1H93.3c-.7 0-1.2-.1-1.2.7v19.12s-.2 6.8.5 9.3c1.3 4.8 4.7 7.2 11.8 8.1 2.5.3 5.7.4 10 .4h20.53c.7 0 1.2.1 1.2-.7v-7.3c0-.7-.6-.7-1.2-.7H116.3c-11.1 0-11.1-1.3-11.1-10.9V50.25c0-.7-.6-.7-1.2-.7zm28.03 0c-.9 0-1.1.2-1.1.9v7.1c0 .7.2.9 1.1.9h11.5c.6 0 .7.1.7.7V86.9c0 .3.3.5.7.5h11.52c.4 0 .7-.2.7-.5V59.16c0-.6.2-.7.8-.7h11.42c.8 0 1.1-.2 1.1-.9v-7c-.1-.8-.3-1-1.2-1zm56.95 0c-8.8 0-14.5 5-14.5 12v13.72c0 7.1 5.7 12 14.5 12h29.93c.6 0 1.22 0 1.22-.7v-6.7c0-.8-.5-.7-1.2-.7h-27.93c-1.92 0-3.42-1.5-3.42-3.4s1.5-3.4 3.4-3.4h27.03c1.4 0 2.12-.1 2.12-1.7v-9.1c0-7.12-5.7-12.02-14.52-12.02zm35.84.1c-.8 0-.9.6-.6 1l14.9 17.22s.5.5.5.6c0 .2-.5.6-.5.6s-14.4 16.7-14.7 17c-.6.7 0 1.3.5 1.3h13.8c.7 0 1-.4 1.2-.6l11.12-12.8c.2-.3.4-.4.8-.4s.6.1.8.4l11.12 12.8c.2.2.5.6 1.2.6h13.8c.5 0 1.1-.6.5-1.3-.2-.3-14.7-17-14.7-17s-.5-.5-.5-.6c0-.2.5-.6.5-.6l14.9-17.22c.4-.4.2-1-.6-1h-13c-.9 0-1.2.3-1.5.6 0 0-10.6 11.7-11.7 12.8-.3.3-.6.5-.8.5-.2 0-.5-.2-.82-.5-1.1-1.1-11.7-12.8-11.7-12.8-.3-.3-.6-.6-1.5-.6zm-33.13 8.3h11.6c1.6 0 2.8.5 3.4 1.3.5.6.7 1.2.7 2.1 0 1-.4 1.9-1.1 2.5-.7.6-1.7.9-2.9.9h-11.7c-1.2 0-2.22-.3-2.92-.9-.8-.6-1.2-1.4-1.2-2.5 0-.8.2-1.5.7-2.1.5-.8 1.8-1.3 3.4-1.3z"/><path fill="#fff" d="M73.17 31.33s0 .1-.2.2c0 0-4.9 1.6-8.5 5.1-3.5 3.5-5.1 8.5-5.1 8.5 0 .2-.2.2-.2.2s-.1 0-.2-.2c0 0-1.6-5-5.12-8.5-3.5-3.5-8.5-5.1-8.5-5.1-.2 0-.2-.2-.2-.2s0-.1.2-.2c0 0 4.9-1.6 8.5-5.1 3.5-3.5 5.1-8.5 5.1-8.5 0-.2.2-.2.2-.2s.2 0 .2.2c0 0 1.6 5 5.1 8.5 3.52 3.5 8.52 5.1 8.52 5.1.2.1.2.2.2.2z"/></svg>